<?xml version="1.0" standalone="no"?>
<!DOCTYPE svg PUBLIC "-//W3C//DTD SVG 20010904//EN"
 "http://www.w3.org/TR/2001/REC-SVG-20010904/DTD/svg10.dtd">
<svg version="1.0" xmlns="http://www.w3.org/2000/svg"
 width="165.000000pt" height="171.000000pt" viewBox="0 0 165.000000 171.000000"
 preserveAspectRatio="xMidYMid meet">
<metadata>
Created by potrace 1.16, written by Peter Selinger 2001-2019
</metadata>
<g transform="translate(0.000000,171.000000) scale(0.016500,-0.017100)"
fill="#000000" stroke="none">
<path d="M5002 9430 c-127 -23 -219 -97 -248 -198 -15 -49 -15 -90 -1 -436 9
-209 20 -397 26 -416 20 -66 67 -127 122 -159 94 -54 265 -65 381 -26 82 28
155 106 179 189 10 32 39 360 39 432 0 41 -1 42 -37 48 -21 3 -100 8 -175 12
l-138 6 0 -96 0 -96 45 0 45 0 -1 -82 c-1 -144 -12 -198 -43 -224 -46 -41
-148 -26 -176 25 -15 28 -14 752 1 785 23 50 127 73 188 41 41 -21 53 -60 50
-157 l-4 -83 130 -7 c71 -3 131 -5 132 -4 2 2 4 53 5 114 1 102 -1 115 -27
167 -51 105 -167 163 -345 170 -52 2 -119 0 -148 -5z"/>
<path d="M4540 9413 c-236 -18 -736 -77 -749 -89 -6 -5 22 -175 30 -180 4 -2
63 5 130 16 73 12 125 16 129 11 3 -6 36 -241 74 -523 37 -282 69 -514 69
-515 4 -3 219 26 223 30 3 3 -17 238 -44 523 -28 286 -49 520 -48 521 1 2 61
8 132 14 71 6 130 12 131 13 1 1 -1 43 -4 94 -4 58 -10 91 -17 90 -6 -1 -31
-3 -56 -5z"/>
<path d="M5730 9376 c0 -22 -119 -1164 -124 -1197 l-5 -26 110 -13 c64 -8 114
-9 118 -4 5 5 23 117 41 249 18 132 36 245 39 251 4 7 42 5 126 -9 66 -10 122
-20 123 -22 2 -2 -17 -114 -42 -249 -25 -135 -46 -251 -46 -259 0 -14 210 -60
221 -49 5 6 265 1145 272 1191 1 11 -32 22 -132 43 -74 16 -135 27 -136 26 -1
-2 -24 -118 -50 -258 -26 -140 -48 -256 -49 -257 -1 -1 -60 8 -132 19 l-130
22 37 260 c21 143 37 261 36 262 -1 1 -47 7 -102 13 -55 7 -117 15 -137 18
-31 4 -38 2 -38 -11z"/>
<path d="M3445 9256 c-264 -60 -497 -126 -492 -140 2 -6 82 -273 178 -594 173
-580 174 -583 199 -579 14 2 97 23 185 47 88 23 209 53 268 65 60 13 111 26
114 29 5 5 -12 121 -23 159 -7 23 -31 20 -240 -28 -81 -19 -148 -34 -149 -32
-7 11 -85 330 -81 334 6 6 173 48 254 64 50 9 61 15 58 28 -5 15 -36 159 -36
166 0 3 -199 -39 -277 -59 -47 -13 -53 -12 -57 3 -27 87 -76 294 -72 298 7 8
258 68 348 84 40 7 72 18 75 26 5 12 -10 109 -23 156 -7 23 -10 22 -229 -27z"/>
<path d="M6776 9148 c-38 -136 -296 -1130 -296 -1142 0 -8 27 -20 68 -31 37
-10 164 -50 282 -88 118 -39 219 -72 224 -72 7 0 76 156 76 171 0 0 -85 29
-188 64 l-188 64 50 166 c27 91 50 166 51 167 1 2 70 -20 154 -48 84 -28 156
-47 160 -43 18 20 61 158 53 166 -5 5 -76 31 -158 58 -82 27 -149 53 -149 57
0 27 90 303 99 303 6 0 97 -30 201 -66 105 -36 197 -68 205 -70 11 -4 23 18
48 82 17 48 31 88 30 90 -9 8 -388 133 -518 170 -85 25 -163 47 -172 50 -14 4
-20 -6 -32 -48z"/>
<path d="M2720 9053 c-286 -98 -654 -250 -647 -267 3 -6 119 -262 257 -568
l253 -557 36 16 c147 64 307 127 412 164 68 23 126 44 127 45 2 1 -9 41 -24
89 -34 103 -14 101 -231 21 -81 -30 -154 -56 -162 -58 -9 -2 -34 48 -77 152
-35 85 -64 158 -64 161 0 4 64 30 143 59 78 29 146 57 151 61 7 7 -35 157 -49
177 -1 1 -74 -24 -161 -57 -87 -33 -159 -59 -160 -58 -1 1 -29 69 -62 150
l-60 149 45 19 c24 10 115 44 201 75 86 31 161 61 167 66 5 5 -1 40 -19 93
-15 47 -28 85 -29 84 -1 0 -22 -8 -47 -16z"/>
<path d="M7600 8908 c-27 -64 -60 -152 -57 -153 1 -1 55 -23 120 -49 64 -27
119 -51 121 -55 2 -3 -90 -217 -205 -476 -115 -258 -208 -476 -207 -483 4 -17
198 -106 208 -95 5 4 108 213 230 463 122 250 226 459 230 464 5 5 60 -19 125
-53 64 -33 118 -61 120 -61 5 0 85 153 85 163 0 17 -719 357 -756 357 -2 0 -9
-10 -14 -22z"/>
<path d="M1818 8675 l-107 -55 45 -127 c55 -156 229 -619 255 -681 11 -25 18
-46 16 -48 -2 -2 -34 40 -73 94 -124 173 -464 627 -473 630 -11 4 -232 -129
-237 -143 -5 -13 91 -223 267 -585 66 -135 111 -236 101 -225 -10 11 -68 76
-128 145 -105 121 -388 435 -444 494 l-28 28 -98 -70 c-55 -39 -108 -77 -119
-85 -19 -15 -8 -27 250 -289 149 -150 335 -343 414 -428 79 -85 154 -166 167
-179 l23 -24 133 88 c73 48 135 89 137 91 2 2 -8 29 -22 61 -173 396 -217 496
-217 501 0 3 75 -89 166 -204 91 -115 178 -223 192 -241 l27 -31 125 69 c69
38 126 75 128 81 1 7 -26 94 -61 193 -69 195 -233 688 -292 878 -20 64 -37
117 -38 116 -1 0 -50 -25 -109 -54z"/>
<path d="M8422 8507 c-39 -66 -72 -126 -72 -130 0 -3 44 -30 98 -60 53 -31
106 -62 116 -70 18 -14 6 -36 -254 -461 -226 -372 -270 -450 -259 -460 24 -21
175 -116 185 -116 5 0 137 194 293 431 157 236 288 432 292 435 4 2 53 -27
109 -66 55 -39 106 -73 113 -76 19 -7 120 135 107 151 -28 33 -440 300 -662
428 l-46 27 -20 -33z"/>
<path d="M4435 7919 c-780 -81 -1515 -291 -2132 -609 -667 -345 -1231 -848
-1527 -1364 -204 -355 -312 -648 -358 -976 -27 -193 -10 -1780 22 -2076 49
-447 263 -908 616 -1330 727 -867 2071 -1462 3494 -1545 261 -15 915 -6 1110
16 733 81 1382 270 2001 581 460 231 887 546 1187 874 321 352 532 712 655
1120 79 260 97 490 96 1235 0 640 -13 1027 -39 1184 -52 311 -147 579 -304
854 -366 644 -1004 1182 -1839 1553 -566 251 -1265 432 -1832 474 -190 14
-1038 21 -1150 9z m900 -310 c371 -16 575 -41 920 -114 534 -113 1025 -292
1455 -531 131 -73 413 -263 533 -359 511 -411 861 -941 982 -1485 40 -181 45
-243 51 -655 9 -622 -8 -801 -92 -971 -62 -127 -184 -224 -280 -224 -50 0 -57
7 -79 85 -12 41 -28 70 -55 97 -35 36 -41 38 -99 38 -60 0 -64 -2 -111 -46
l-50 -47 0 -293 0 -294 -47 0 c-76 0 -95 16 -111 85 -7 33 -21 68 -30 78 -27
30 -88 57 -129 57 -40 0 -105 -38 -126 -74 -8 -15 -14 -128 -17 -377 -5 -333
-6 -358 -24 -378 -24 -27 -85 -28 -117 -2 -21 17 -23 28 -28 148 -7 149 -16
171 -85 205 -55 26 -103 19 -152 -24 -41 -36 -59 -69 -69 -121 -10 -50 -28
-67 -75 -67 -47 0 -65 17 -75 67 -11 63 -50 119 -98 142 -24 12 -52 21 -63 21
-29 -1 -95 -34 -127 -65 l-28 -27 3 -426 c2 -302 -1 -435 -9 -453 -14 -31 -63
-54 -98 -45 -45 11 -49 40 -55 371 -6 343 -5 342 -75 385 -91 56 -225 -11
-225 -114 0 -56 -36 -126 -78 -150 -42 -24 -126 -25 -170 -2 -44 23 -62 54
-72 124 -10 72 -19 90 -65 131 -60 53 -150 40 -209 -29 l-26 -32 0 -268 c0
-269 -8 -352 -37 -398 -21 -34 -88 -28 -117 11 -19 25 -22 46 -26 193 l-5 166
-37 34 c-34 30 -44 34 -95 34 -41 0 -68 -6 -91 -20 -38 -23 -71 -88 -72 -138
0 -108 -116 -174 -223 -128 -48 20 -64 43 -87 131 -25 92 -54 135 -105 160
-54 25 -97 13 -156 -42 l-48 -45 -3 -376 c-3 -344 -5 -379 -21 -404 -29 -42
-80 -61 -153 -56 -131 8 -144 50 -144 465 l0 302 -44 35 c-85 70 -140 69 -211
-4 -30 -30 -40 -50 -46 -91 -5 -29 -15 -59 -23 -68 -15 -14 -108 -22 -120 -10
-4 4 -11 32 -16 64 -12 71 -48 121 -108 147 -51 23 -88 19 -133 -14 -64 -48
-72 -74 -79 -262 -6 -179 -12 -204 -54 -231 -33 -22 -113 -29 -163 -16 -74 20
-80 45 -88 401 -3 129 -8 263 -11 297 -9 98 -57 143 -155 143 -47 0 -55 -3
-89 -39 -23 -24 -41 -56 -49 -87 -7 -27 -15 -57 -18 -66 -5 -21 -66 -34 -102
-22 -20 7 -29 20 -38 57 -25 102 -82 157 -162 157 -53 0 -101 -25 -128 -67
-15 -23 -19 -57 -23 -235 -4 -171 -8 -211 -20 -218 -8 -6 -42 -9 -75 -8 l-60
3 -6 392 c-8 491 -10 516 -54 560 -30 30 -39 33 -89 33 -32 0 -70 -7 -86 -15
-39 -20 -70 -62 -70 -95 0 -69 -36 -110 -95 -110 -33 0 -65 33 -65 67 0 42
-38 110 -74 133 -47 28 -143 28 -180 -1 -53 -42 -60 -69 -66 -274 -6 -217 -11
-235 -66 -235 -88 0 -94 26 -94 431 0 340 0 342 -60 393 -80 67 -240 -4 -240
-107 0 -30 -16 -67 -34 -79 -20 -14 -94 -9 -110 8 -9 8 -16 32 -17 52 -1 20
-4 210 -8 422 -5 339 -8 388 -23 409 -31 44 -68 61 -137 61 -60 0 -66 -2 -97
-35 -18 -20 -39 -55 -45 -78 -15 -52 -26 -66 -58 -79 -44 -16 -69 -2 -82 45
-20 69 -16 1177 5 1332 55 421 236 818 545 1199 80 99 299 317 416 415 185
153 417 307 670 443 146 79 154 83 350 168 530 230 1159 377 1835 429 138 11
521 11 775 0z m-4462 -4549 c6 -246 19 -306 82 -389 87 -113 172 -162 300
-170 l90 -6 5 -165 c6 -157 7 -168 35 -223 36 -72 131 -164 212 -203 49 -24
70 -29 134 -29 67 0 85 5 151 38 82 40 146 101 193 182 48 84 50 85 130 85
l73 0 4 -232 3 -233 32 -68 c75 -159 255 -265 403 -237 113 21 229 108 285
213 45 85 49 87 130 87 l72 0 6 -97 c15 -232 106 -387 276 -471 73 -36 78 -37
186 -37 108 0 113 1 186 37 83 41 192 140 235 214 16 27 36 47 51 50 22 6 142
-2 149 -9 2 -2 8 -59 13 -128 12 -151 21 -181 71 -257 104 -156 243 -229 421
-220 76 4 97 9 164 42 124 62 217 172 251 300 7 28 17 103 20 167 l7 116 113
-5 c100 -4 121 -2 175 17 l61 23 73 -71 c123 -120 237 -154 373 -112 163 49
273 194 289 377 l6 74 153 0 154 0 0 -58 c0 -212 177 -399 387 -410 102 -6
161 23 268 131 65 65 86 93 99 134 23 68 35 203 36 376 l0 137 63 0 c34 0 77
4 96 10 42 12 57 4 137 -69 76 -70 142 -96 239 -96 107 1 164 25 250 106 111
106 145 201 145 409 l0 96 87 10 c52 6 108 20 136 34 71 33 149 109 187 182
29 54 35 75 38 150 l4 87 57 6 c171 18 274 49 357 106 25 17 48 28 51 25 10
-9 -17 -183 -48 -306 -52 -215 -155 -469 -260 -645 -298 -498 -805 -943 -1434
-1257 -518 -259 -1109 -435 -1725 -512 -1001 -126 -1999 -26 -2866 288 -673
243 -1171 559 -1571 995 -219 239 -347 429 -452 671 -124 289 -180 524 -188
790 l-5 165 69 0 70 0 6 -215z"/>
<path d="M3822 7113 c-48 -23 -92 -78 -92 -114 0 -70 83 -182 290 -391 l136
-138 58 0 c54 0 61 3 97 39 37 36 39 42 39 98 0 48 -5 68 -25 98 -71 104 -333
387 -379 409 -43 20 -82 20 -124 -1z"/>
<path d="M7214 6801 c-60 -37 -64 -50 -64 -224 0 -178 9 -215 64 -248 42 -25
121 -25 163 1 57 35 65 63 61 234 -3 150 -4 153 -31 189 -51 67 -130 86 -193
48z"/>
<path d="M6035 6782 c-68 -6 -105 -57 -105 -143 0 -46 5 -59 41 -106 59 -75
156 -163 207 -185 57 -26 92 -17 148 36 40 38 44 47 44 89 0 69 -12 89 -107
188 -111 115 -139 130 -228 121z"/>
<path d="M2254 6391 c-84 -51 -86 -117 -9 -424 74 -293 92 -354 122 -405 31
-54 77 -76 137 -66 52 8 80 27 107 71 18 29 21 44 15 95 -12 118 -129 576
-168 656 -41 86 -131 118 -204 73z"/>
<path d="M7674 5963 c-30 -23 -44 -60 -44 -120 0 -84 13 -108 74 -137 68 -32
350 -128 457 -155 l87 -23 39 21 c49 25 103 84 103 114 0 46 -22 97 -51 122
-40 33 -67 44 -284 118 -161 54 -190 61 -275 64 -52 2 -100 0 -106 -4z"/>
<path d="M4879 5900 c-656 -52 -1206 -343 -1418 -750 -61 -116 -71 -164 -71
-323 0 -156 13 -224 62 -321 157 -311 486 -542 971 -680 212 -61 271 -68 602
-72 369 -4 493 9 713 71 229 64 421 149 592 263 132 87 218 165 293 267 120
161 161 280 162 460 0 138 -16 205 -75 325 -51 101 -113 182 -216 280 -249
235 -616 398 -1049 465 -121 18 -421 27 -566 15z m581 -326 c286 -43 578 -153
756 -285 157 -115 279 -335 259 -465 -3 -24 -7 -44 -9 -44 -1 0 -85 25 -185
55 -394 119 -666 161 -1096 172 -493 12 -929 -50 -1364 -193 -74 -24 -136 -43
-137 -41 -2 2 1 43 6 93 15 130 66 231 174 339 45 45 110 100 146 124 140 91
339 170 541 215 99 22 163 31 354 50 86 9 454 -4 555 -20z m88 -909 c78 -8
210 -28 292 -45 141 -29 474 -120 487 -134 9 -8 -58 -76 -122 -126 -136 -105
-402 -216 -635 -266 -355 -75 -862 -51 -1185 57 -177 59 -365 161 -487 265
-38 31 -68 60 -68 64 0 7 48 23 230 76 118 35 324 80 455 99 217 33 748 38
1033 10z"/>
<path d="M1525 5075 c-16 -8 -45 -32 -62 -52 -26 -29 -33 -45 -33 -77 1 -23 6
-51 13 -63 21 -38 127 -153 189 -204 67 -56 107 -63 168 -30 77 40 100 122 59
204 -26 50 -141 166 -206 208 -52 32 -84 36 -128 14z"/>
<path d="M7808 4805 c-21 -14 -42 -34 -48 -45 -6 -12 -10 -156 -10 -393 0
-357 1 -375 20 -399 64 -83 189 -72 243 20 23 38 36 207 36 437 -1 211 -10
298 -35 332 -55 75 -139 94 -206 48z"/>
<path d="M2955 4419 c-55 -16 -152 -43 -215 -60 -191 -50 -363 -100 -391 -115
-15 -7 -38 -27 -53 -44 -22 -26 -26 -41 -26 -92 0 -57 2 -63 39 -99 35 -36 43
-39 92 -39 98 0 650 150 762 207 86 43 88 173 3 238 -50 38 -94 39 -211 4z"/>
<path d="M6014 3740 c-31 -12 -70 -68 -82 -115 -17 -63 -25 -190 -17 -252 6
-48 13 -63 44 -94 64 -64 148 -60 215 10 39 41 46 73 46 223 0 155 -6 176 -64
216 -34 23 -101 29 -142 12z"/>
<path d="M7056 3304 c-62 -42 -86 -139 -50 -194 25 -38 154 -168 198 -201 98
-73 236 -3 236 119 0 32 -9 52 -46 101 -53 71 -152 163 -199 185 -48 23 -95
20 -139 -10z"/>
<path d="M2700 3238 c-19 -5 -47 -21 -62 -36 -26 -24 -28 -32 -28 -100 l0 -75
97 -98 c150 -154 209 -170 298 -85 42 39 45 46 45 93 0 62 -22 94 -146 214
-103 99 -127 109 -204 87z"/>
<path d="M4308 3213 c-29 -34 -38 -62 -38 -121 0 -44 5 -66 20 -85 29 -37 236
-116 490 -188 l104 -29 46 22 c58 29 90 77 90 135 0 93 -32 116 -269 200 -183
65 -260 83 -349 83 -63 0 -82 -4 -94 -17z"/>
<path d="M9220 7865 c-25 -8 -62 -28 -83 -45 -20 -18 -137 -165 -260 -328
-247 -328 -253 -341 -245 -462 7 -88 46 -158 138 -242 149 -136 312 -166 438
-81 67 46 529 531 559 588 22 40 27 64 27 121 1 95 -39 177 -132 272 -147 151
-315 218 -442 177z m246 -257 c26 -18 56 -49 66 -70 17 -32 18 -40 5 -70 -20
-46 -482 -563 -516 -578 -39 -16 -76 -4 -122 40 -42 40 -51 80 -27 123 18 35
447 555 471 572 33 23 70 18 123 -17z"/>
<path d="M524 7811 c-116 -42 -266 -177 -320 -288 -22 -45 -30 -75 -33 -135
-4 -92 15 -140 80 -206 90 -91 187 -112 398 -88 261 30 330 21 399 -50 57 -60
58 -100 3 -155 -57 -57 -87 -54 -161 17 l-59 56 -96 -88 c-52 -48 -95 -91 -95
-94 0 -19 121 -119 162 -134 71 -27 185 -20 262 18 84 41 189 143 227 222 29
59 31 70 27 143 -4 62 -10 88 -32 125 -43 73 -80 110 -148 147 -58 30 -72 34
-167 37 -56 3 -159 -1 -228 -7 -187 -18 -272 7 -315 91 -23 44 -18 66 24 114
66 75 119 82 183 23 30 -28 48 -38 58 -32 28 17 187 147 187 154 0 3 -19 28
-42 54 -79 90 -197 118 -314 76z"/>
</g>
</svg>
